ply
format ascii 1.0
comment Created by Open Asset Import Library - http://assimp.sf.net (v3.1.187496374)
element vertex 476
property float x
property float y
property float z
property float nx
property float ny
property float nz
element face 616
property list uint uint vertex_index
end_header
-0.680103 -0.020133 -0.080543 -0.608538 -0.288604 0.706064
-0.686871 -0.0641003 -0.113887 -0.527964 -0.522984 0.647828
-0.639271 -0.0668522 -0.0813368 -0.404758 -0.639247 0.630199
-0.639234 -0.0927894 -0.113454 -0.348177 -0.726436 0.586253
-0.626606 -0.0844163 -0.0974939 -0.267738 -0.749733 0.605158
-0.71662 0.0162246 -0.11353 -0.653846 0.200472 0.700051
-0.71662 -0.0162246 -0.11353 -0.653846 -0.200472 0.700051
-0.680103 0.020133 -0.080543 -0.608538 0.288604 0.706064
-0.686871 0.0641003 -0.113887 -0.527964 0.522984 0.647828
-0.639271 0.0668522 -0.0813368 -0.404758 0.639247 0.630199
-0.626606 0.0844163 -0.0974939 -0.267738 0.749733 0.605158
-0.639234 0.0927894 -0.113454 -0.348177 0.726436 0.586253
0.459157 0.0162965 -0.055307 -0.0334956 0.961203 0.273802
0.46226 0.00555395 -0.0172149 -0.0431999 0.979092 0.165316
0.721584 0.0178166 -0.0285394 0.0364584 0.97817 0.0795483
0.850045 0.00163594 0.374912 -0.0529042 0.996981 0.0568295
0.941512 0.00863336 0.374912 0.0714354 0.986653 -0.0175785
0.825149 0 0.0356241 0.195775 0.976325 -0.0919865
1 0 0.374912 0.195775 0.976325 -0.0919865
0.459157 0.0162965 -0.055307 -0.9967 0 0.0811718
0.459157 -0.0162965 -0.055307 -0.9967 0 0.0811718
0.46226 -0.00555395 -0.0172149 -0.853866 0 0.392166
0.46226 0.00555395 -0.0172149 -0.853866 0 0.392166
0.850045 -0.00163594 0.374912 -0.355516 0 0.85158
0.850045 0.00163594 0.374912 -0.355516 0 0.85158
0.941512 -0.00863336 0.374912 0 0 1
0.941512 0.00863336 0.374912 0 0 1
1 0 0.374912 0 0 1
0.941512 -0.00863336 0.374912 0.0714354 -0.986653 -0.0175785
0.850045 -0.00163594 0.374912 -0.0529042 -0.996981 0.0568295
0.46226 -0.00555395 -0.0172149 -0.0431999 -0.979092 0.165316
0.721584 -0.0178166 -0.0285394 0.0364584 -0.97817 0.0795483
1 0 0.374912 0.195775 -0.976325 -0.0919865
0.459157 -0.0162965 -0.055307 -0.0334956 -0.961203 0.273802
0.825149 0 0.0356241 0.195775 -0.976325 -0.0919865
0.721865 -0.0733663 -0.0119331 0.999958 0.00058535 -0.00649218
0.721865 -0.118965 -0.00049721 1 0 0
0.721865 -0.156397 -0.0194193 0.999971 0.00103531 -0.00478473
0.721584 -0.0178166 -0.0285394 0.905314 0.000853524 -0.172233
0.721865 -0.205534 -0.0888384 0.999996 0.00197006 -0.00064542
0.721584 0.0178166 -0.0285394 0.905314 -0.000853507 -0.172232
0.825149 0 0.0356241 0.52666 0 -0.850076
0.72162 -0.0343449 -0.044664 0.999997 0.00111673 0.000108807
0.72162 0.0343418 -0.0446623 0.999997 -0.00111651 0.000109683
0.721865 -0.194373 -0.130761 0.999994 0.00289462 0.00110217
0.72152 -0.0686878 -0.104149 0.999995 0.00251401 -0.000777787
0.72142 -0.0343387 -0.163637 0.997673 0.00202914 0.0401506
0.721865 -0.164697 -0.167378 0.992353 -0.000232699 0.112834
0.72142 0.0343481 -0.163632 0.997673 -0.00203013 0.0401498
0.725943 -0.11094 -0.196295 0.990245 -0.000171416 0.139336
0.725943 -0.0422527 -0.196297 0.99024 -2.40491e-07 0.139375
0.734201 -0.145286 -0.255202 0.990402 -0.00241446 0.138187
0.721865 0.164697 -0.167378 0.992353 0.000232142 0.112834
0.745138 -0.17836 -0.334663 0.991034 -0.00172533 0.133518
0.721865 0.194373 -0.130761 0.999994 -0.00289422 0.00110123
0.72152 0.0686878 -0.104145 0.999995 -0.00251339 -0.000778048
0.725943 0.0422527 -0.196297 0.99024 2.40491e-07 0.139375
0.725943 0.11094 -0.196295 0.990245 0.000171416 0.139336
0.734201 0.145286 -0.255202 0.990402 0.00241446 0.138187
0.745138 0.17836 -0.334663 0.991034 0.00172533 0.133518
0.734201 0.00790992 -0.255206 0.990316 0 0.138828
0.74246 0.0422589 -0.314118 0.991179 2.04404e-08 0.132455
0.734201 -0.00790992 -0.255206 0.990316 0 0.138828
0.74246 -0.0422589 -0.314118 0.991179 -2.06487e-08 0.132455
0.742459 0.110946 -0.314113 0.991062 0.00125964 0.133328
0.742459 -0.110946 -0.314113 0.991062 -0.00125964 0.133328
0.721865 0.205534 -0.0888384 0.999996 -0.00196965 -0.000644823
0.721865 0.156397 -0.0194193 0.999971 -0.00103531 -0.00478473
0.721865 0.0733663 -0.0119331 0.999958 -0.00058535 -0.00649218
0.721865 0.118965 -0.00049721 1 0 0
0.745138 0.17836 -0.334663 0.0398445 0.974744 -0.0690311
0.721865 0.177345 -0.36243 0.0398445 0.974744 -0.0690311
0.721865 0.164697 -0.167378 -0.119858 0.99071 0.0642411
0.875675 0.149727 -0.341605 0.199547 0.958777 -0.202303
0.721865 -0.177345 -0.36243 0.0398445 -0.974744 -0.0690311
0.875675 -0.149727 -0.341605 0.199547 -0.958777 -0.202303
0.745138 -0.17836 -0.334663 0.0398445 -0.974744 -0.0690311
0.721865 -0.164697 -0.167378 -0.119858 -0.99071 0.0642411
0.745138 -0.17836 -0.334663 0.0531047 0 0.998589
0.875675 -0.149727 -0.341605 0.0531047 0 0.998589
0.875675 0.149727 -0.341605 0.0531047 0 0.998589
0.745138 0.17836 -0.334663 0.0531047 0 0.998589
-0.591624 0.0888238 -0.0883678 -0.104668 0.696005 0.692694
0.205792 0.0845979 -0.0745995 -0.00727816 0.50694 0.851232
0.205792 0.119121 -0.0975671 -0.0171291 0.641367 0.756685
-0.591644 0.0700532 -0.0704555 -0.084179 0.467828 0.848376
-0.591585 0.11711 -0.123287 -0.182274 0.737878 0.637784
-0.626606 0.0844163 -0.0974939 -0.247218 0.737821 0.626821
-0.639234 0.0927894 -0.113454 -0.300196 0.721319 0.618464
-0.639211 0.109205 -0.134295 -0.282193 0.718784 0.632939
-0.591575 0.125543 -0.1321 -0.135304 0.783219 0.576773
-0.6392 0.118454 -0.143652 -0.274083 0.768484 0.559848
-0.639271 0.0668522 -0.0813368 -0.305221 0.526798 0.771039
-0.639296 0.021876 -0.0574513 -0.251599 0.23365 0.893574
-0.680103 0.020133 -0.080543 -0.476832 0.208191 0.826932
-0.639296 -0.021876 -0.0574513 -0.251599 -0.23365 0.893574
-0.591659 -0.0218799 -0.0555714 -0.0197222 -0.13779 0.980152
-0.591659 0.0218799 -0.0555714 -0.0197222 0.13779 0.980152
-0.680103 -0.020133 -0.080543 -0.476832 -0.208191 0.826932
-0.639271 -0.0668522 -0.0813368 -0.305221 -0.526798 0.771039
-0.591644 -0.0700532 -0.0704555 -0.084179 -0.467828 0.848376
0.205792 -0.0636143 -0.065402 -0.0017858 -0.309324 0.947186
0.205792 -0.017719 -0.0553576 -0.000586295 -0.115707 0.986261
0.205792 0.017719 -0.0553576 -0.000586295 0.115707 0.986261
0.205792 0.0636143 -0.065402 -0.0017858 0.309324 0.947186
0.459157 -0.0162965 -0.055307 -0.0337273 -0.134997 0.984457
0.459157 0.0162965 -0.055307 -0.0337273 0.134997 0.984457
0.459157 -0.0611341 -0.0644277 -0.124947 -0.0977421 0.946213
0.721584 -0.0178166 -0.0285394 -0.138016 0.04142 0.959224
0.721865 -0.0733663 -0.0119331 -0.177483 0.260237 0.948844
0.459157 -0.0823145 -0.0721821 -0.148194 -0.405265 0.888049
0.721865 -0.118965 -0.00049721 -0.255167 -0.1775 0.899756
0.459157 -0.117945 -0.0914793 -0.124415 -0.553108 0.805528
0.205792 -0.0845979 -0.0745995 -0.00784444 -0.508122 0.851902
0.721865 -0.156397 -0.0194193 -0.279737 -0.620111 0.709184
0.459157 -0.130533 -0.102427 -0.167783 -0.771036 0.573948
0.205792 -0.119121 -0.0975671 -0.0184447 -0.648928 0.751874
-0.591624 -0.0888238 -0.0883678 -0.104668 -0.696005 0.692694
-0.591585 -0.11711 -0.123287 -0.182274 -0.737878 0.637784
0.205792 -0.130409 -0.107857 -0.0171855 -0.788739 0.586662
0.721865 -0.205534 -0.0888384 -0.236449 -0.869899 0.23904
0.459157 -0.143412 -0.129699 -0.115744 -0.914564 -0.00334489
-0.59154 -0.141501 -0.162423 -0.0665143 -0.948674 0.185652
0.205792 -0.143483 -0.134983 -0.00729257 -0.948565 0.231649
-0.591575 -0.125543 -0.1321 -0.135304 -0.783219 0.576773
0.459157 -0.143413 -0.168711 -0.0414124 -0.997726 0.0221254
0.721865 -0.164697 -0.167378 -0.107673 -0.919742 -0.190417
0.721865 -0.194373 -0.130761 -0.168356 -0.858774 -0.437594
0.205792 -0.144379 -0.163193 -0.00146261 -0.999758 0.015098
0.205853 -0.147005 -0.27756 -0.00216307 -0.999816 0.00766441
0.447319 -0.147005 -0.310802 -0.0434736 -0.997131 0.0375788
0.721865 -0.177345 -0.36243 -0.0907837 -0.994559 0.0510949
-0.63929 -0.136116 -0.319423 -0.138833 -0.986385 0.0012828
-0.63929 -0.13782 -0.178069 -0.200848 -0.920891 0.217873
-0.84347 -0.0920122 -0.24994 -0.319066 -0.929381 0.105652
-0.843463 -0.0944571 -0.292821 -0.319118 -0.936746 0.0530605
-0.686779 -0.127725 -0.195043 -0.260743 -0.921859 0.203774
-0.6392 -0.118454 -0.143652 -0.274083 -0.768484 0.559848
-0.686823 -0.11082 -0.1573 -0.307917 -0.779588 0.525276
-0.84347 -0.0830288 -0.213367 -0.36837 -0.819264 0.392969
-0.84347 -0.071187 -0.197578 -0.402148 -0.588799 0.680538
-0.686835 -0.100346 -0.146839 -0.331816 -0.6796 0.650323
-0.639211 -0.109205 -0.134295 -0.282193 -0.718784 0.632939
-0.639234 -0.0927894 -0.113454 -0.300196 -0.721319 0.618464
-0.686871 -0.0641003 -0.113887 -0.3867 -0.423405 0.791172
-0.626606 -0.0844163 -0.0974939 -0.247218 -0.737821 0.626821
-0.84347 -0.0326671 -0.176018 -0.426077 -0.297148 0.839745
-0.921735 -0.0482706 -0.236401 -0.529954 -0.750921 0.346545
-0.921735 -0.0413862 -0.226927 -0.542263 -0.543345 0.609506
-0.921735 -0.0189917 -0.213991 -0.540826 -0.278185 0.773558
-0.84347 -0.0134513 -0.172773 -0.425561 -0.113313 0.891694
-0.921735 -0.00782022 -0.212044 -0.540182 -0.0708426 0.828662
-1 0 -0.275326 -0.626823 -0.105728 0.686541
-0.921735 0.0413862 -0.226927 -0.542263 0.543345 0.609506
-0.921735 0.0189917 -0.213991 -0.540826 0.278185 0.773558
-0.921735 0.00782022 -0.212044 -0.540182 0.0708425 0.828662
-0.84347 0.0134513 -0.172773 -0.425561 0.113313 0.891694
-0.71662 -0.0162246 -0.11353 -0.418059 -0.131555 0.888986
-0.84347 0.0326671 -0.176018 -0.426077 0.297148 0.839745
-0.686871 0.0641003 -0.113887 -0.3867 0.423405 0.791172
-0.71662 0.0162246 -0.11353 -0.418059 0.131555 0.888986
-0.84347 0.071187 -0.197578 -0.402148 0.588799 0.680538
-0.686835 0.100346 -0.146839 -0.331816 0.6796 0.650322
-0.84347 0.0830288 -0.213367 -0.36837 0.819264 0.392969
-0.921735 0.0482706 -0.236401 -0.529954 0.750921 0.346545
-0.686823 0.11082 -0.1573 -0.307917 0.779588 0.525276
-0.686779 0.127725 -0.195043 -0.260743 0.921859 0.203774
-0.84347 0.0920122 -0.24994 -0.319066 0.929381 0.105652
-0.63929 0.13782 -0.178069 -0.200848 0.920891 0.217873
-0.63929 0.136116 -0.319423 -0.138833 0.986385 0.0012828
-0.59154 0.141501 -0.162423 -0.0665143 0.948674 0.185652
-0.843463 0.0944571 -0.292821 -0.319118 0.936746 0.0530605
0.205853 0.147005 -0.27756 -0.00216307 0.999816 0.00766441
0.205792 0.143483 -0.134983 -0.00729257 0.948565 0.231649
0.205792 0.144379 -0.163193 -0.00146261 0.999758 0.015098
0.205792 0.130409 -0.107857 -0.0171855 0.788739 0.586662
0.459157 0.143412 -0.129699 -0.130532 0.940884 0.120458
0.459157 0.130533 -0.102427 -0.167783 0.771036 0.573948
0.459157 0.143413 -0.168711 -0.0669939 0.950277 -0.108001
0.447319 0.147005 -0.310802 -0.0434736 0.997131 0.0375788
0.721865 0.205534 -0.0888384 -0.236449 0.869899 0.23904
0.721865 0.194373 -0.130761 -0.145102 0.902277 -0.293773
0.721865 0.156397 -0.0194193 -0.279737 0.620111 0.709184
0.459157 0.117945 -0.0914793 -0.152849 0.562877 0.793096
0.459157 0.0823145 -0.0721821 -0.149883 0.415212 0.882349
0.721865 0.118965 -0.00049721 -0.255167 0.1775 0.899756
0.459157 0.0611341 -0.0644277 -0.124947 0.0977421 0.946213
0.721865 0.0733663 -0.0119331 -0.177483 -0.260237 0.948844
0.721584 0.0178166 -0.0285394 -0.138016 -0.04142 0.959224
0.721865 0.164697 -0.167378 -0.0752126 0.885037 -0.288705
0.721865 0.177345 -0.36243 -0.0907837 0.994559 0.0510949
-0.921735 0.0534934 -0.258345 -0.511639 0.843406 0.123667
-0.921731 0.0549147 -0.284073 -0.507996 0.856974 0.0477602
-1 0 -0.275326 -0.590869 0.748601 0.231519
-0.921735 -0.0534934 -0.258345 -0.511639 -0.843406 0.123667
-1 0 -0.275326 -0.576039 -0.805718 0.116778
-0.921731 -0.0549147 -0.284073 -0.507996 -0.856974 0.0477602
0.640195 0.637294 -0.320643 0.100445 0.0604815 0.983878
0.550225 0.589927 -0.310301 0.104283 0.0639274 0.985721
0.447319 0.147005 -0.310802 0.150989 -0.0367221 0.987387
0.721865 0.177345 -0.36243 0.177786 -0.0502135 0.982787
0.559069 0.637294 -0.31874 0.0112523 0.275123 0.944162
0.454805 0.589927 -0.301366 -0.133449 0.288327 0.902083
0.205853 0.147005 -0.27756 -0.0974681 0.19762 0.952664
0.474134 0.619325 -0.316423 -0.192672 0.54059 0.808165
0.155624 0.337566 -0.333896 -0.273271 0.24884 0.925085
0.408799 0.589927 -0.319962 -0.330185 0.446925 0.816872
0.064293 0.27087 -0.335662 -0.119448 0.304281 0.939708
-0.63929 0.136116 -0.319423 -0.0506747 0.376076 0.925202
0.454805 -0.589927 -0.301366 -0.10635 -0.293597 0.89773
0.550225 -0.589927 -0.310301 0.104283 -0.0639274 0.985721
0.447319 -0.147005 -0.310802 0.150989 0.0367221 0.987387
0.205853 -0.147005 -0.27756 -0.147665 -0.209435 0.942174
0.559069 -0.637294 -0.31874 0.0112523 -0.275123 0.944162
0.408799 -0.589927 -0.319962 -0.309188 -0.348935 0.863808
0.474134 -0.619325 -0.316423 -0.192672 -0.54059 0.808165
0.721865 -0.177345 -0.36243 0.177786 0.0502135 0.982787
0.640195 -0.637294 -0.320643 0.100445 -0.0604815 0.983878
0.155624 -0.337566 -0.333896 -0.224595 -0.221135 0.948245
0.064293 -0.27087 -0.335662 -0.119448 -0.304281 0.939708
-0.63929 -0.136116 -0.319423 -0.0506747 -0.376076 0.925202
0.155624 -0.337566 -0.333896 -0.0599256 -0.155726 -0.984961
0.205853 -0.147005 -0.370825 -0.0937959 -0.0874162 -0.983538
0.447319 -0.147005 -0.374912 -0.0103553 -0.094063 -0.992734
0.408799 -0.589927 -0.319962 -0.0320855 -0.120249 -0.991752
0.064293 -0.27087 -0.335662 -0.121566 -0.0545572 -0.983873
0.205853 0.147005 -0.370825 -0.0937959 0.0874162 -0.983538
0.064293 0.27087 -0.335662 -0.121566 0.0545572 -0.983873
-0.63929 0.136116 -0.319423 -0.0761375 0 -0.995676
-0.63929 -0.136116 -0.319423 -0.0761375 0 -0.995676
0.155624 0.337566 -0.333896 -0.0599256 0.155726 -0.984961
0.447319 0.147005 -0.374912 -0.0103553 0.094063 -0.992734
0.408799 0.589927 -0.319962 -0.0320855 0.120249 -0.991752
0.474134 0.619325 -0.316423 -0.0275992 0.124349 -0.991512
0.559069 0.637294 -0.31874 -0.0145123 0.106097 -0.993462
0.721865 0.177345 -0.36243 0.0474177 0.0481437 -0.994924
0.640195 0.637294 -0.320643 -0.0233614 0.0863401 -0.995992
0.721865 -0.177345 -0.36243 0.0474177 -0.0481437 -0.994924
0.875675 0.149727 -0.341605 0.134174 0 -0.990958
0.559069 -0.637294 -0.31874 -0.0145123 -0.106097 -0.993462
0.474134 -0.619325 -0.316423 -0.0275992 -0.124349 -0.991512
0.640195 -0.637294 -0.320643 -0.0233614 -0.0863401 -0.995992
0.875675 -0.149727 -0.341605 0.134174 0 -0.990958
-0.843463 -0.0944571 -0.292821 -0.120137 0 -0.992715
-0.843463 0.0944571 -0.292821 -0.120137 0 -0.992715
-0.921731 -0.0549147 -0.284073 -0.111073 0 -0.993812
-0.921731 0.0549147 -0.284073 -0.111073 0 -0.993812
-1 0 -0.275326 -0.111073 0 -0.993812
0.803143 0.0266412 -0.104284 0.553397 -0.693103 -0.000964925
0.803105 0.0133222 -0.127357 0.554403 -0.346593 0.599294
0.84056 0.02177 -0.142049 0.232027 -0.417203 0.722111
0.840624 0.0435347 -0.104346 0.230815 -0.834303 -0.000431016
0.803182 0.0133197 -0.0812133 0.55239 -0.346531 -0.601187
0.782371 0 -0.104251 0.743731 -0.579478 0.333272
0.782371 0 -0.104251 0.742607 -0.579443 -0.335827
0.803105 -0.0133186 -0.127359 0.554399 0.346513 0.599332
0.84056 -0.021764 -0.142053 0.232024 0.417101 0.722155
0.782371 0 -0.104251 0.74354 0.386288 0.221799
0.803143 -0.0266412 -0.104286 0.553392 0.693096 -0.000909165
0.840624 -0.0435347 -0.104349 0.230812 0.834291 -0.00036522
0.880251 -0.048041 -0.104415 0.0980056 0.861847 -0.000142023
0.880181 -0.0240168 -0.146022 0.0992574 0.430877 0.746243
0.840687 -0.021768 -0.0666468 0.229604 0.417164 -0.722907
0.880321 -0.0240212 -0.0628107 0.0967548 0.430943 -0.746549
0.803182 -0.0133209 -0.081214 0.55239 0.346562 -0.601169
0.840687 0.0217661 -0.0666456 0.229604 -0.417126 -0.722929
0.880321 0.024019 -0.0628095 0.0967542 -0.430904 -0.746572
0.782371 0 -0.104251 0.742045 1.70603e-05 -0.67035
0.880251 0.048041 -0.104412 0.0980062 -0.86186 -0.000209823
0.880181 0.0240234 -0.146018 0.0992585 -0.430983 0.746198
0.794463 0.0765977 -0.246758 0.674041 -2.67625e-05 0.544922
0.818237 0.0632791 -0.266724 0.464699 0.346513 0.671275
0.818237 0.0899199 -0.266722 0.464708 -0.346595 0.671239
0.815034 0.103239 -0.243873 0.548042 -0.693106 0.0767925
0.815034 0.0499565 -0.243874 0.54803 0.693098 0.0768477
0.857386 0.0548336 -0.276009 0.128267 0.417102 0.74759
0.852152 0.0330629 -0.238671 0.228574 0.834291 0.0320662
0.857386 0.0983676 -0.276006 0.128277 -0.417202 0.747547
0.811831 0.0899175 -0.221025 0.631371 -0.346532 -0.517618
0.852151 0.120132 -0.238668 0.228586 -0.834303 0.0320009
0.794463 0.0765977 -0.246758 0.78242 -0.579449 -0.228163
0.897172 0.0525808 -0.274373 -0.00656631 0.430878 0.752786
0.897171 0.100621 -0.274369 -0.00655771 -0.430982 0.752742
0.891395 0.0285567 -0.233169 0.0970522 0.861848 0.0136286
0.885619 0.0525764 -0.191968 0.200677 0.430943 -0.725552
0.846918 0.0548296 -0.201334 0.328887 0.417164 -0.68348
0.885619 0.100617 -0.191967 0.20068 -0.430904 -0.725574
0.811831 0.0632767 -0.221026 0.631369 0.346563 -0.5176
0.846917 0.0983637 -0.201333 0.32889 -0.417127 -0.683502
0.891395 0.124639 -0.233167 0.0970641 -0.86186 0.0135615
0.794463 0.0765977 -0.246758 0.828863 1.77904e-05 -0.559451
0.794463 0.0765977 -0.246758 0.782417 0.579464 -0.228132
0.897171 -0.100621 -0.274369 -0.00655771 0.430982 0.752742
0.897172 -0.0525808 -0.274373 -0.00656631 -0.430878 0.752786
0.857386 -0.0548336 -0.276009 0.128267 -0.417102 0.74759
0.857386 -0.0983676 -0.276006 0.128277 0.417202 0.747547
0.891395 -0.124639 -0.233167 0.0970641 0.86186 0.0135615
0.891395 -0.0285567 -0.233169 0.0970522 -0.861848 0.0136286
0.852152 -0.0330629 -0.238671 0.228574 -0.834292 0.0320662
0.815034 -0.0499565 -0.243874 0.54803 -0.693098 0.0768477
0.818237 -0.0632791 -0.266724 0.464699 -0.346513 0.671275
0.852151 -0.120132 -0.238668 0.228586 0.834303 0.0320009
0.818237 -0.0899199 -0.266722 0.464708 0.346595 0.671239
0.885619 -0.100617 -0.191967 0.20068 0.430904 -0.725574
0.846917 -0.0983637 -0.201333 0.32889 0.417127 -0.683502
0.815034 -0.103239 -0.243873 0.548042 0.693106 0.0767925
0.794463 -0.0765977 -0.246758 0.766938 0.386304 -0.117721
0.794463 -0.0765977 -0.246758 0.64308 5.33556e-05 0.765799
0.794463 -0.0765977 -0.246758 0.689513 -0.579455 0.434516
0.811831 -0.0632767 -0.221026 0.631369 -0.346563 -0.5176
0.794463 -0.0765977 -0.246758 0.782417 -0.579464 -0.228132
0.811831 -0.0899175 -0.221025 0.631371 0.346532 -0.517618
0.846918 -0.0548296 -0.201334 0.328887 -0.417164 -0.68348
0.885619 -0.0525764 -0.191968 0.200677 -0.430943 -0.725552
0.782368 0.0209111 -0.140464 -0.312278 0.409268 -0.708234
0.782368 -0.0209054 -0.140467 -0.312274 -0.409169 -0.708278
0.746835 -0.0117689 -0.12458 -0.407774 -0.395553 -0.68453
0.746835 0.0117721 -0.124578 -0.407779 0.395648 -0.684486
0.782429 0.0418171 -0.104249 -0.311089 0.818436 0.000564709
0.826971 0.0265982 -0.150388 -0.158019 0.426935 -0.739089
0.827048 0.05319 -0.104323 -0.156779 0.853766 0.000307642
0.746869 -0.0235412 -0.104191 -0.406625 -0.791189 0.000659287
0.782429 -0.0418171 -0.104251 -0.311085 -0.818425 0.000499345
0.746903 -0.011771 -0.0838042 -0.40548 -0.395612 0.685871
0.827048 -0.05319 -0.104326 -0.156777 -0.853754 0.000240646
0.78249 -0.0209092 -0.0680366 -0.309901 -0.40923 0.709299
0.826971 -0.026591 -0.150392 -0.158017 -0.426832 -0.739134
0.746903 0.0117699 -0.0838035 -0.40548 0.395575 0.685892
0.827126 -0.0265958 -0.0582624 -0.155539 -0.426896 0.739638
0.78249 0.0209073 -0.0680356 -0.3099 0.409193 0.70932
0.880371 -0.0592538 -0.104415 -0.0980077 -0.861847 0.000141889
0.880285 -0.0296224 -0.155733 -0.0992596 -0.430878 -0.746243
0.880285 0.0296305 -0.155728 -0.0992614 0.430982 -0.746197
0.880371 0.0592538 -0.104412 -0.0980091 0.86186 0.000209749
0.880457 0.0296251 -0.0530989 -0.0967569 0.430904 0.746571
0.827126 0.0265934 -0.058261 -0.155539 0.426858 0.73966
0.880457 -0.0296278 -0.0531004 -0.0967574 -0.430943 0.746549
0.746869 0.0235412 -0.10419 -0.40663 0.791199 0.000723884
0.845103 0.0500067 -0.286175 -0.052608 -0.426832 -0.754004
0.838708 0.0234077 -0.240555 -0.155255 -0.853754 -0.021788
0.79452 0.0347805 -0.24675 -0.30807 -0.818424 -0.04321
0.799548 0.0556923 -0.282616 -0.20967 -0.409169 -0.745125
0.845102 0.103196 -0.286171 -0.0526165 0.426935 -0.753959
0.898639 0.0469752 -0.283973 0.006565 -0.430878 -0.752787
0.898638 0.106228 -0.283969 0.0065583 0.430982 -0.752741
0.799548 0.0975087 -0.282612 -0.209681 0.409267 -0.745082
0.762135 0.0648289 -0.271877 -0.30756 -0.395552 -0.73503
0.759305 0.0530564 -0.251687 -0.402685 -0.791188 -0.0564733
0.838707 0.129788 -0.240553 -0.155267 0.853767 -0.0217212
0.891514 0.135851 -0.233149 -0.0970662 0.861861 -0.0135622
0.79452 0.118415 -0.246748 -0.308083 0.818435 -0.0431456
0.762135 0.0883697 -0.271876 -0.307571 0.395648 -0.734989
0.88439 0.106223 -0.182333 -0.200684 0.430905 0.725573
0.832313 0.103191 -0.194936 -0.257911 0.426858 0.710472
0.789492 0.0975049 -0.210885 -0.40648 0.409193 0.658748
0.759304 0.100139 -0.251685 -0.402699 0.791197 -0.056411
0.88439 0.0469699 -0.182334 -0.200681 -0.430943 0.725551
0.832313 0.0500018 -0.194938 -0.257908 -0.426896 0.71045
0.756474 0.0883676 -0.231496 -0.497822 0.395575 0.622125
0.789493 0.0556885 -0.210886 -0.406477 -0.40923 0.658727
0.891514 0.0173439 -0.233152 -0.0970557 -0.861847 -0.0136293
0.756474 0.0648267 -0.231497 -0.497818 -0.39561 0.622104
0.79452 -0.118415 -0.246748 -0.308083 -0.818435 -0.0431456
0.799548 -0.0975087 -0.282612 -0.209681 -0.409267 -0.745083
0.845102 -0.103196 -0.286171 -0.0526165 -0.426935 -0.753959
0.838707 -0.129788 -0.240553 -0.155267 -0.853767 -0.0217212
0.789492 -0.0975049 -0.210885 -0.40648 -0.409193 0.658748
0.756474 -0.0883676 -0.231496 -0.497822 -0.395575 0.622125
0.759304 -0.100139 -0.251685 -0.402699 -0.791197 -0.056411
0.832313 -0.103191 -0.194936 -0.257911 -0.426858 0.710472
0.898638 -0.106228 -0.283969 0.0065583 -0.430982 -0.752741
0.891514 -0.135851 -0.233149 -0.0970662 -0.861861 -0.0135622
0.756474 -0.0648267 -0.231497 -0.497818 0.39561 0.622104
0.789493 -0.0556885 -0.210886 -0.406477 0.40923 0.658727
0.832313 -0.0500018 -0.194938 -0.257908 0.426896 0.71045
0.88439 -0.106223 -0.182333 -0.200684 -0.430905 0.725573
0.759305 -0.0530564 -0.251687 -0.402685 0.791188 -0.0564733
0.79452 -0.0347805 -0.24675 -0.30807 0.818424 -0.04321
0.838708 -0.0234077 -0.240555 -0.155255 0.853754 -0.021788
0.88439 -0.0469699 -0.182334 -0.200681 0.430943 0.725551
0.799548 -0.0556923 -0.282616 -0.20967 0.409169 -0.745125
0.762135 -0.0648289 -0.271877 -0.30756 0.395552 -0.73503
0.845103 -0.0500067 -0.286175 -0.052608 0.426832 -0.754004
0.891514 -0.0173439 -0.233152 -0.0970557 0.861847 -0.0136293
0.762135 -0.0883697 -0.271876 -0.307571 -0.395648 -0.734989
0.898639 -0.0469752 -0.283973 0.006565 0.430878 -0.752787
0.744433 0.0216741 -0.0666435 0.841644 0.187356 0.323127
0.74437 0.0433507 -0.104185 0.8411 0.374737 -0.00139135
0.72152 0.0686878 -0.104145 0.692642 0.62465 -0.0011287
0.72162 0.0343418 -0.0446623 0.693549 0.312306 0.539812
0.746903 0.0117699 -0.0838035 0.989739 0.062406 0.106441
0.744433 -0.021676 -0.0666448 0.841644 -0.187375 0.323118
0.746903 -0.011771 -0.0838042 0.989738 -0.0624147 0.10644
0.72142 0.0343481 -0.163632 0.691735 0.312363 -0.542102
0.744307 0.021678 -0.141728 0.840555 0.187392 -0.32593
0.72142 -0.0343387 -0.163637 0.691729 -0.312292 -0.542138
0.746835 0.0117721 -0.124578 0.989375 0.0624203 -0.109758
0.744307 -0.021672 -0.141732 0.840552 -0.187349 -0.325952
0.746869 0.0235412 -0.10419 0.989557 0.124823 -0.001654
0.72152 -0.0686878 -0.104149 0.692637 -0.624645 -0.00118059
0.746835 -0.0117689 -0.12458 0.989375 -0.0624069 -0.109765
0.74437 -0.0433507 -0.104187 0.841097 -0.374735 -0.00142201
0.72162 -0.0343449 -0.044664 0.69355 -0.312335 0.539795
0.746869 -0.0235412 -0.104191 0.989556 -0.124824 -0.00166344
0.762042 0.0982756 -0.289211 0.878009 0.187391 -0.204607
0.762042 0.0549256 -0.289215 0.878008 -0.187349 -0.204629
0.74246 0.0422589 -0.314118 0.761033 -0.312293 -0.43958
0.742459 0.110946 -0.314113 0.761035 0.312363 -0.439544
0.762135 0.0883697 -0.271876 0.994983 0.062419 0.0303306
0.75683 0.119948 -0.252031 0.832954 0.374736 0.116789
0.759304 0.100139 -0.251685 0.979975 0.124824 0.137386
0.734201 0.00790992 -0.255206 0.685931 -0.624647 0.0961388
0.75683 0.0332469 -0.252033 0.832954 -0.374736 0.116758
0.725943 0.0422527 -0.196297 0.610835 -0.312335 0.631878
0.751618 0.0549216 -0.214855 0.787901 -0.187375 0.438157
0.762135 0.0648289 -0.271877 0.994984 -0.0624053 0.0303223
0.759305 0.0530564 -0.251687 0.979976 -0.124824 0.137376
0.725943 0.11094 -0.196295 0.610834 0.312306 0.631895
0.751618 0.0982717 -0.214853 0.7879 0.187357 0.438166
0.756474 0.0648267 -0.231497 0.964967 -0.0624154 0.244437
0.734201 0.145286 -0.255202 0.685932 0.624649 0.0961918
0.756474 0.0883676 -0.231496 0.964967 0.0624079 0.244438
0.725943 -0.11094 -0.196295 0.610834 -0.312306 0.631895
0.734201 -0.145286 -0.255202 0.685932 -0.624649 0.0961918
0.75683 -0.119948 -0.252031 0.832954 -0.374736 0.116789
0.751618 -0.0982717 -0.214853 0.787901 -0.187357 0.438166
0.725943 -0.0422527 -0.196297 0.610835 0.312335 0.631878
0.742459 -0.110946 -0.314113 0.761035 -0.312363 -0.439544
0.762042 -0.0982756 -0.289211 0.878009 -0.187391 -0.204607
0.762135 -0.0883697 -0.271876 0.994983 -0.062419 0.0303306
0.759304 -0.100139 -0.251685 0.979975 -0.124824 0.137386
0.756474 -0.0883676 -0.231496 0.964967 -0.0624079 0.244438
0.751618 -0.0549216 -0.214855 0.787901 0.187375 0.438157
0.734201 -0.00790992 -0.255206 0.685931 0.624647 0.0961388
0.75683 -0.0332469 -0.252033 0.832954 0.374736 0.116758
0.756474 -0.0648267 -0.231497 0.964967 0.0624154 0.244437
0.74246 -0.0422589 -0.314118 0.761033 0.312293 -0.43958
0.759305 -0.0530564 -0.251687 0.979976 0.124824 0.137376
0.762042 -0.0549256 -0.289215 0.878008 0.187349 -0.204629
0.762135 -0.0648289 -0.271877 0.994984 0.0624053 0.0303223
0.880181 -0.0240168 -0.146022 0.999937 0.00536489 0.00761347
0.880251 -0.048041 -0.104415 0.999922 0.0107281 -0.00167641
0.880371 -0.0592538 -0.104415 0.999922 0.0107281 -0.00167641
0.880285 -0.0296224 -0.155733 0.999937 0.00536489 0.00761347
0.880181 0.0240234 -0.146018 0.999937 -0.00536582 0.00761273
0.880321 -0.0240212 -0.0628107 0.999906 0.005363 -0.0109624
0.880457 -0.0296278 -0.0531004 0.999906 0.005363 -0.0109624
0.880321 0.024019 -0.0628095 0.999906 -0.00536245 -0.0109627
0.880457 0.0296251 -0.0530989 0.999906 -0.00536245 -0.0109627
0.880251 0.048041 -0.104412 0.999922 -0.010728 -0.00167744
0.880371 0.0592538 -0.104412 0.999922 -0.010728 -0.00167744
0.880285 0.0296305 -0.155728 0.999937 -0.00536582 0.00761273
0.891395 0.124639 -0.233167 0.99024 -0.0107363 0.138819
0.897171 0.100621 -0.274369 0.98895 -0.00536947 0.148024
0.898638 0.106228 -0.283969 0.98895 -0.00536947 0.148024
0.891514 0.135851 -0.233149 0.99024 -0.0107363 0.138819
0.885619 0.100617 -0.191967 0.991531 -0.00536823 0.129612
0.897172 0.0525808 -0.274373 0.98895 0.00536362 0.148023
0.898639 0.0469752 -0.283973 0.98895 0.00536362 0.148023
0.891395 0.0285567 -0.233169 0.99024 0.010731 0.138818
0.891514 0.0173439 -0.233152 0.99024 0.010731 0.138818
0.885619 0.0525764 -0.191968 0.991531 0.00536594 0.129613
0.88439 0.0469699 -0.182334 0.991531 0.00536594 0.129613
0.88439 0.106223 -0.182333 0.991531 -0.00536823 0.129612
0.88439 -0.0469699 -0.182334 0.991531 -0.00536594 0.129613
0.88439 -0.106223 -0.182333 0.991531 0.00536823 0.129612
0.885619 -0.100617 -0.191967 0.991531 0.00536823 0.129612
0.885619 -0.0525764 -0.191968 0.991531 -0.00536594 0.129613
0.891514 -0.0173439 -0.233152 0.99024 -0.010731 0.138818
0.891514 -0.135851 -0.233149 0.99024 0.0107363 0.138819
0.891395 -0.124639 -0.233167 0.99024 0.0107363 0.138819
0.898638 -0.106228 -0.283969 0.98895 0.00536947 0.148024
0.897171 -0.100621 -0.274369 0.98895 0.00536947 0.148024
0.898639 -0.0469752 -0.283973 0.98895 -0.00536362 0.148023
0.897172 -0.0525808 -0.274373 0.98895 -0.00536362 0.148023
0.891395 -0.0285567 -0.233169 0.99024 -0.010731 0.138818
3 0 1 2
3 3 4 2
3 5 6 0
3 5 0 7
3 1 0 6
3 5 7 8
3 9 10 11
3 8 9 11
3 3 2 1
3 8 7 9
3 12 13 14
3 14 13 15
3 14 15 16
3 17 14 16
3 17 16 18
3 19 20 21
3 19 21 22
3 22 21 23
3 22 23 24
3 24 23 25
3 24 25 26
3 26 25 27
3 28 29 30
3 28 30 31
3 32 28 31
3 31 30 33
3 32 31 34
3 35 36 37
3 38 35 37
3 38 37 39
3 38 40 41
3 39 42 38
3 38 42 43
3 38 43 40
3 44 45 39
3 39 45 42
3 44 46 45
3 44 47 46
3 47 48 46
3 49 50 47
3 51 49 47
3 47 52 48
3 52 47 50
3 53 51 47
3 48 54 55
3 48 52 54
3 52 56 57
3 52 57 58
3 52 58 59
3 52 50 56
3 50 60 56
3 61 60 62
3 50 62 60
3 53 59 61
3 53 61 63
3 61 59 64
3 61 62 63
3 64 59 58
3 53 63 65
3 53 65 51
3 55 54 66
3 55 66 43
3 43 66 40
3 40 66 67
3 40 67 68
3 67 69 68
3 70 71 72
3 70 73 71
3 74 75 76
3 77 74 76
3 78 79 80
3 78 80 81
3 82 83 84
3 82 85 83
3 86 82 84
3 87 82 86
3 85 82 87
3 88 87 86
3 88 86 89
3 86 90 91
3 86 91 89
3 84 90 86
3 85 87 92
3 93 85 92
3 94 93 92
3 93 95 96
3 93 96 97
3 85 93 97
3 94 95 93
3 94 98 95
3 99 95 98
3 99 100 95
3 100 96 95
3 101 102 96
3 101 96 100
3 97 96 102
3 85 97 103
3 97 102 103
3 83 85 104
3 85 103 104
3 103 102 105
3 103 105 106
3 104 103 106
3 107 105 102
3 107 102 101
3 105 107 108
3 107 109 108
3 110 107 101
3 111 107 110
3 107 111 109
3 111 110 112
3 110 101 113
3 113 112 110
3 111 112 114
3 115 114 112
3 112 113 116
3 115 112 116
3 113 100 117
3 116 113 117
3 113 101 100
3 116 117 118
3 118 119 116
3 115 116 119
3 114 115 120
3 121 120 115
3 119 121 115
3 122 123 119
3 122 119 124
3 118 124 119
3 119 123 121
3 121 125 126
3 127 121 126
3 125 121 123
3 120 121 127
3 122 128 123
3 125 123 128
3 129 130 125
3 129 125 128
3 126 125 130
3 126 130 131
3 132 129 128
3 132 128 122
3 132 122 133
3 132 134 135
3 132 133 136
3 132 136 134
3 133 137 138
3 133 138 136
3 122 137 133
3 136 138 139
3 136 139 134
3 140 139 138
3 140 138 141
3 137 141 138
3 137 142 141
3 142 137 124
3 122 124 137
3 143 141 142
3 143 144 141
3 141 144 140
3 142 124 118
3 142 118 143
3 118 145 143
3 118 117 145
3 99 145 117
3 99 117 100
3 144 146 140
3 147 139 140
3 147 140 148
3 140 146 149
3 140 149 148
3 149 146 150
3 144 150 146
3 149 150 151
3 152 149 151
3 148 149 152
3 152 147 148
3 153 152 154
3 155 152 151
3 154 152 155
3 150 155 151
3 150 156 155
3 156 154 155
3 156 150 157
3 144 157 150
3 158 156 159
3 156 157 160
3 156 160 159
3 156 158 154
3 158 153 154
3 158 161 153
3 161 158 159
3 162 159 88
3 161 159 162
3 162 163 161
3 161 163 164
3 161 164 153
3 162 165 163
3 165 162 89
3 89 162 88
3 163 165 166
3 165 89 91
3 166 165 91
3 163 166 167
3 166 168 169
3 167 166 169
3 166 91 168
3 168 91 90
3 168 90 170
3 168 170 169
3 171 167 169
3 170 172 169
3 173 174 170
3 170 174 172
3 90 173 170
3 84 175 90
3 90 175 173
3 174 173 176
3 177 176 173
3 177 173 175
3 174 176 178
3 174 178 179
3 174 179 172
3 176 180 181
3 176 177 180
3 178 176 181
3 177 182 180
3 175 183 177
3 177 183 182
3 175 84 183
3 182 183 184
3 84 184 183
3 182 184 185
3 186 185 184
3 83 186 184
3 84 83 184
3 187 185 186
3 188 186 106
3 83 104 186
3 188 187 186
3 104 106 186
3 189 178 181
3 190 178 189
3 190 179 178
3 163 167 191
3 167 171 192
3 167 192 191
3 163 191 164
3 192 193 191
3 191 193 164
3 164 193 153
3 194 139 147
3 195 194 147
3 196 134 194
3 194 134 139
3 195 196 194
3 196 135 134
3 197 198 199
3 197 199 200
3 201 198 197
3 202 198 201
3 203 199 198
3 203 198 202
3 204 202 201
3 205 203 202
3 206 202 204
3 205 202 206
3 207 203 205
3 208 203 207
3 209 210 211
3 209 211 212
3 213 210 209
3 214 209 212
3 213 209 215
3 215 209 214
3 216 211 210
3 216 210 217
3 217 210 213
3 214 212 218
3 218 212 219
3 219 212 220
3 221 222 223
3 224 221 223
3 221 225 222
3 226 223 222
3 222 225 227
3 222 227 226
3 228 227 225
3 228 225 229
3 226 227 230
3 231 226 230
3 226 231 223
3 231 230 232
3 231 232 233
3 233 234 231
3 234 235 231
3 223 231 235
3 234 236 235
3 223 235 237
3 237 235 238
3 223 237 239
3 223 239 240
3 240 224 223
3 237 241 239
3 237 238 242
3 229 243 244
3 229 244 228
3 243 245 246
3 243 246 244
3 245 247 246
3 248 249 250
3 248 250 251
3 252 248 251
3 253 249 248
3 254 248 252
3 249 255 256
3 249 256 250
3 257 255 249
3 257 258 255
3 255 258 259
3 255 259 256
3 256 259 260
3 256 260 261
3 250 256 261
3 259 262 263
3 259 263 260
3 258 262 259
3 257 264 258
3 258 264 262
3 262 265 266
3 262 266 263
3 264 265 262
3 264 252 265
3 267 252 264
3 252 251 265
3 265 251 268
3 265 268 266
3 251 250 269
3 251 269 268
3 250 261 269
3 270 271 272
3 270 272 273
3 270 274 271
3 272 271 275
3 271 274 276
3 271 276 275
3 273 272 277
3 272 275 277
3 278 273 279
3 273 277 279
3 280 273 278
3 277 275 281
3 277 281 282
3 279 277 282
3 275 276 283
3 275 283 281
3 276 284 283
3 276 285 284
3 285 286 284
3 287 288 285
3 274 287 285
3 274 285 276
3 285 288 286
3 288 289 286
3 287 278 288
3 278 279 288
3 288 279 289
3 290 278 287
3 291 287 274
3 279 282 289
3 292 293 294
3 292 294 295
3 296 292 295
3 293 297 298
3 293 298 294
3 294 298 299
3 294 299 300
3 295 294 300
3 296 295 301
3 295 300 302
3 301 295 302
3 303 296 301
3 303 301 304
3 304 301 305
3 301 302 305
3 305 302 306
3 302 300 307
3 300 299 308
3 298 309 299
3 299 309 310
3 309 311 306
3 298 312 309
3 312 311 309
3 311 305 306
3 304 305 311
3 312 304 311
3 313 304 312
3 297 313 312
3 297 312 298
3 313 303 304
3 314 315 316
3 314 316 317
3 318 314 317
3 319 315 314
3 320 319 314
3 320 314 318
3 315 321 316
3 315 322 321
3 322 323 321
3 324 325 322
3 326 324 322
3 326 322 315
3 322 325 323
3 325 327 323
3 324 328 325
3 328 329 325
3 325 329 327
3 330 328 324
3 331 330 324
3 331 324 326
3 332 331 326
3 332 326 319
3 319 326 315
3 333 332 319
3 333 319 320
3 334 333 320
3 334 320 335
3 335 320 318
3 336 334 335
3 336 335 328
3 328 335 329
3 335 318 329
3 318 317 337
3 329 318 337
3 329 337 327
3 330 336 328
3 338 339 340
3 338 340 341
3 342 338 341
3 343 339 338
3 344 343 338
3 344 338 342
3 342 341 345
3 345 341 346
3 341 340 347
3 341 347 346
3 348 342 345
3 349 344 342
3 349 342 348
3 350 345 351
3 345 346 351
3 348 345 350
3 352 349 348
3 352 348 353
3 353 348 350
3 354 350 355
3 350 351 355
3 353 350 354
3 356 352 353
3 356 353 357
3 357 353 354
3 354 355 358
3 359 354 358
3 357 354 359
3 360 356 357
3 360 357 339
3 339 357 359
3 359 358 361
3 340 359 361
3 339 359 340
3 343 360 339
3 340 361 347
3 362 363 364
3 362 364 365
3 366 362 365
3 367 368 362
3 367 362 366
3 368 363 362
3 366 365 369
3 365 364 370
3 365 370 371
3 369 365 371
3 372 367 366
3 372 366 373
3 373 366 369
3 373 369 374
3 374 369 375
3 369 371 375
3 376 372 373
3 376 373 377
3 377 373 374
3 378 374 379
3 377 374 378
3 374 375 379
3 380 377 378
3 381 376 377
3 381 377 380
3 382 378 383
3 378 379 383
3 380 378 382
3 363 380 382
3 384 381 380
3 384 380 363
3 382 383 385
3 363 382 364
3 364 382 385
3 368 384 363
3 364 385 370
3 386 387 388
3 386 388 389
3 390 387 386
3 391 386 389
3 392 390 386
3 392 386 391
3 387 393 388
3 387 394 393
3 394 395 393
3 396 397 394
3 394 397 395
3 398 396 394
3 398 394 387
3 397 399 395
3 396 400 397
3 397 401 399
3 400 401 397
3 401 402 399
3 403 391 401
3 401 391 402
3 400 403 401
3 391 389 402
3 403 392 391
3 390 398 387
3 404 405 406
3 404 406 407
3 408 405 404
3 409 404 407
3 410 408 404
3 410 404 409
3 405 411 406
3 412 413 411
3 405 412 411
3 412 414 413
3 415 416 412
3 415 412 405
3 416 414 412
3 414 417 413
3 414 418 417
3 419 418 414
3 416 419 414
3 418 420 417
3 421 409 418
3 418 409 420
3 419 421 418
3 409 407 420
3 421 410 409
3 408 415 405
3 422 423 424
3 422 424 425
3 426 422 425
3 423 427 428
3 423 428 424
3 424 428 429
3 424 429 430
3 425 424 430
3 425 430 431
3 426 425 432
3 432 425 431
3 433 426 432
3 434 432 435
3 433 432 434
3 432 431 435
3 436 433 434
3 434 435 437
3 436 434 438
3 438 434 437
3 427 436 438
3 428 438 439
3 427 438 428
3 438 437 439
3 428 439 429
3 440 441 442
3 440 442 443
3 444 440 443
3 441 445 446
3 441 446 442
3 445 447 448
3 445 448 446
3 447 449 450
3 447 450 448
3 449 444 451
3 449 451 450
3 444 443 451
3 452 453 454
3 452 454 455
3 456 452 455
3 453 457 458
3 453 458 454
3 457 459 460
3 457 460 458
3 459 461 462
3 459 462 460
3 461 456 463
3 461 463 462
3 456 455 463
3 464 465 466
3 464 466 467
3 468 464 467
3 465 469 470
3 465 470 466
3 469 471 472
3 469 472 470
3 471 473 474
3 471 474 472
3 473 468 475
3 473 475 474
3 468 467 475
